<?xml version="1.0" encoding="utf-8"?>
<!-- Generator: Adobe Illustrator 27.0.0, SVG Export Plug-In . SVG Version: 6.00 Build 0)  -->
<svg version="1.1" id="Layer_1" xmlns="http://www.w3.org/2000/svg" xmlns:xlink="http://www.w3.org/1999/xlink" x="0px" y="0px"
	 viewBox="0 0 1440 217" style="enable-background:new 0 0 1440 217;" xml:space="preserve">
<style type="text/css">
	.st0{fill-rule:evenodd;clip-rule:evenodd;fill:#4CAF4E;}
	.st1{filter:url(#Adobe_OpacityMaskFilter);}
	.st2{fill-rule:evenodd;clip-rule:evenodd;fill:#FFFFFF;}
	.st3{mask:url(#b_00000183958904752040820930000000933964052225746068_);fill-rule:evenodd;clip-rule:evenodd;fill:#B5DCB1;}
	.st4{filter:url(#Adobe_OpacityMaskFilter_00000124145345979810243120000001328979792736228749_);}
	.st5{mask:url(#b_00000079451995834256628020000012512013942941378454_);fill-rule:evenodd;clip-rule:evenodd;fill:#B5DCB1;}
</style>
<g transform="translate(-285 -41)">
	<g>
		<path id="a_00000115503812986039580410000008192053129974320548_" class="st0" d="M261.7,286.7c421.5,0,1489,176.1,1489,39.2
			s478.8-248,57.3-248c-198.7,0-468.6,3.6-720-11.2C806.3,50.1,541.9,27.2,345,52.4C-27.7,100.1-159.8,286.7,261.7,286.7
			L261.7,286.7z"/>
	</g>
	<defs>
		<filter id="Adobe_OpacityMaskFilter" filterUnits="userSpaceOnUse" x="123" y="60" width="1109.2" height="360.7">
			<feColorMatrix  type="matrix" values="1 0 0 0 0  0 1 0 0 0  0 0 1 0 0  0 0 0 1 0"/>
		</filter>
	</defs>
	
		<mask maskUnits="userSpaceOnUse" x="123" y="60" width="1109.2" height="360.7" id="b_00000183958904752040820930000000933964052225746068_">
		<g class="st1">
			<path id="a_00000112599953748600349620000006985536512791502516_" class="st2" d="M261.7,286.7c421.5,0,1489,176.1,1489,39.2
				s478.8-248,57.3-248c-198.7,0-468.6,3.6-720-11.2C806.3,50.1,541.9,27.2,345,52.4C-27.7,100.1-159.8,286.7,261.7,286.7
				L261.7,286.7z"/>
		</g>
	</mask>
	<path class="st3" d="M1114.4,326.4c-421.5,0-972.7,179.8-972.7,42.9S12.4,193.6,433.9,193.6s256.3-226.5,256.3-89.7
		C690.2,240.8,1535.9,326.4,1114.4,326.4L1114.4,326.4z"/>
	<defs>
		
			<filter id="Adobe_OpacityMaskFilter_00000088097867735552490970000008446339407259205806_" filterUnits="userSpaceOnUse" x="328" y="106.9" width="1402.5" height="375.1">
			<feColorMatrix  type="matrix" values="1 0 0 0 0  0 1 0 0 0  0 0 1 0 0  0 0 0 1 0"/>
		</filter>
	</defs>
	
		<mask maskUnits="userSpaceOnUse" x="328" y="106.9" width="1402.5" height="375.1" id="b_00000079451995834256628020000012512013942941378454_">
		<g style="filter:url(#Adobe_OpacityMaskFilter_00000088097867735552490970000008446339407259205806_);">
			<path id="a_00000033364308383219335620000003430857429462966678_" class="st2" d="M261.7,286.7c421.5,0,1489,176.1,1489,39.2
				s478.8-248,57.3-248c-198.7,0-468.6,3.6-720-11.2C806.3,50.1,541.9,27.2,345,52.4C-27.7,100.1-159.8,286.7,261.7,286.7
				L261.7,286.7z"/>
		</g>
	</mask>
	<path class="st5" d="M445.7,387.7c421.5,0,972.7,179.8,972.7,42.9s579.9-255.2,158.5-255.2s-707-147-707-10.2
		C869.9,302.1,24.2,387.7,445.7,387.7L445.7,387.7z"/>
</g>
</svg>
